#!OML:ASF X:\für Bonn\!DataBase\2005_08_12_Daniel\c3d\Daniel.ASF
:FULLY-SPECIFIED
:DEGREES
213
root -0.64893 17.2652 16.9723 -892.67 81.3953 -165.164
lowerback 14.5705 -1.52334 7.51325
upperback 2.8734 -0.888751 -2.85858
thorax -5.27518 -0.508904 -7.17595
lowerneck 6.53219 11.959 6.2378
upperneck 12.6342 19.1904 -15.6131
head 4.84914 9.58446 -5.10835
rclavicle -1.77415e-014 5.56597e-015
rhumerus -44.1965 15.3895 -100.482
rradius 60.1888
rwrist -36.4039
rhand -10.9349 15.3464
rfingers 7.12502
rthumb 15.0832 -14.0841
lclavicle -1.77415e-014 5.56597e-015
lhumerus -39.2892 43.9002 60.0401
lradius 19.7283
lwrist -36.6607
lhand -13.1273 -5.76071
lfingers 7.12502
lthumb 12.9705 23.8161
rfemur 14.8629 11.4441 26.0258
rtibia 15.4847
rfoot -40.6242 -35.0579
rtoes -7.24264
lfemur -23.7111 3.63125 -12.2943
ltibia 45.3066
lfoot -18.0222 6.94864
ltoes -3.85782
214
root -0.625135 17.2493 16.9256 -894.091 80.3136 -166.536
lowerback 14.4504 -1.51656 7.35067
upperback 2.91455 -0.912783 -2.89798
thorax -5.16837 -0.511015 -7.11897
lowerneck 6.59834 11.8848 6.1632
upperneck 12.6033 19.0437 -15.3611
head 4.78011 9.52264 -5.03884
rclavicle -2.63887e-014 -2.46493e-014
rhumerus -44.0971 15.0011 -100.339
rradius 58.9636
rwrist -35.6703
rhand -10.6999 14.9251
rfingers 7.12502
rthumb 15.3096 -14.4882
lclavicle -2.63887e-014 -2.46493e-014
lhumerus -40.0789 44.7619 58.5731
lradius 19.4152
lwrist -37.2878
lhand -13.4416 -5.61326
lfingers 7.12502
lthumb 12.6675 23.9826
rfemur 15.1196 10.8152 25.9197
rtibia 15.5225
rfoot -41.1465 -35.2166
rtoes -7.1544
lfemur -23.7904 4.07064 -12.0926
ltibia 45.6985
lfoot -18.3046 7.79726
ltoes -3.4366
215
root -0.600505 17.2334 16.8773 -895.239 79.224 -167.634
lowerback 14.3442 -1.51063 7.1593
upperback 2.95407 -0.939518 -2.91823
thorax -5.07069 -0.514533 -7.02401
lowerneck 6.64744 11.8067 6.06131
upperneck 12.5872 18.8902 -15.0903
head 4.71406 9.45553 -4.95854
rclavicle -1.98785e-015 -1.74931e-014
rhumerus -43.9773 14.6362 -100.166
rradius 57.7156
rwrist -34.7579
rhand -10.4899 14.5608
rfingers 7.12502
rthumb 15.5118 -14.8369
lclavicle -1.98785e-015 -1.74931e-014
lhumerus -40.8946 45.5616 57.1415
lradius 19.1434
lwrist -37.8873
lhand -13.7482 -5.55807
lfingers 7.12502
lthumb 12.3718 24.0558
rfemur 15.395 10.1074 25.7765
rtibia 15.5282
rfoot -41.5656 -35.3516
rtoes -7.156
lfemur -23.8746 4.59169 -11.9035
ltibia 46.0603
lfoot -18.5735 8.73035
ltoes -3.05394
216
root -0.57509 17.217 16.8278 -896.12 78.1335 -168.456
lowerback 14.2559 -1.50396 6.97713
upperback 3.00571 -0.961654 -2.94383
thorax -4.96925 -0.515224 -6.94128
lowerneck 6.69503 11.7263 5.99119
upperneck 12.5485 18.7272 -14.8117
head 4.64308 9.38489 -4.88125
rclavicle -6.16232e-015 1.51076e-014
rhumerus -43.8029 14.2126 -99.9784
rradius 56.4337
rwrist -33.6201
rhand -10.2223 14.2951
rfingers 7.12502
rthumb 15.7695 -15.0825
lclavicle -6.16232e-015 1.51076e-014
lhumerus -41.6197 46.2789 55.7766
lradius 18.8727
lwrist -38.4149
lhand -14.0595 -5.45969
lfingers 7.12502
lthumb 12.0717 24.1721
rfemur 15.6872 9.29905 25.6027
rtibia 15.5089
rfoot -41.8419 -35.4378
rtoes -7.37586
lfemur -23.9646 5.22878 -11.7127
ltibia 46.4118
lfoot -18.8669 9.65019
ltoes -2.61992
217
root -0.548276 17.2015 16.7772 -896.897 77.035 -169.204
lowerback 14.1663 -1.49933 6.76597
upperback 3.03393 -0.991135 -2.97046
thorax -4.89292 -0.521656 -6.84169
lowerneck 6.75938 11.6361 5.95754
upperneck 12.5117 18.5596 -14.5638
head 4.57613 9.31354 -4.81976
rclavicle -3.12092e-014 3.4191e-014
rhumerus -43.6535 13.8374 -99.7779
rradius 55.1647
rwrist -32.2848
rhand -9.93896 14.148
rfingers 7.12502
rthumb 16.0424 -15.2079
lclavicle -3.12092e-014 3.4191e-014
lhumerus -42.3699 46.9 54.4261
lradius 18.6298
lwrist -38.8733
lhand -14.3478 -5.46269
lfingers 7.12502
lthumb 11.7937 24.1852
rfemur 15.9655 8.40176 25.3632
rtibia 15.4653
rfoot -42.0311 -35.4463
rtoes -7.72782
lfemur -24.1009 5.90825 -11.5632
ltibia 46.7517
lfoot -19.1772 10.5766
ltoes -1.70986
218
root -0.520855 17.1853 16.7244 -897.571 75.9327 -169.834
lowerback 14.1101 -1.49559 6.53509
upperback 3.06717 -1.02082 -2.98471
thorax -4.82888 -0.528094 -6.7174
lowerneck 6.75222 11.5403 5.954
upperneck 12.5463 18.3971 -14.3139
head 4.54629 9.2402 -4.75425
rclavicle -2.71341e-014 -2.38542e-015
rhumerus -43.489 13.5233 -99.5313
rradius 53.8673
rwrist -30.7247
rhand -9.76955 14.1174
rfingers 7.12502
rthumb 16.2056 -15.2252
lclavicle -2.71341e-014 -2.38542e-015
lhumerus -43.1611 47.5647 53.0386
lradius 18.3794
lwrist -39.4529
lhand -14.5981 -5.53604
lfingers 7.12502
lthumb 11.5523 24.1256
rfemur 16.2943 7.52725 25.1246
rtibia 15.3832
rfoot -42.233 -35.4654
rtoes -8.14009
lfemur -24.2249 6.58253 -11.4471
ltibia 47.0842
lfoot -19.5093 11.4986
ltoes -1.25703
219
root -0.491519 17.1709 16.6704 -898.138 74.8315 -170.371
lowerback 14.0586 -1.4822 6.29195
upperback 3.09038 -1.03923 -3.00349
thorax -4.77602 -0.529891 -6.59322
lowerneck 6.76058 11.43 5.99249
upperneck 12.5408 18.2061 -14.0587
head 4.50206 9.15586 -4.69699
rclavicle -2.43511e-014 -4.05521e-014
rhumerus -43.2665 13.2064 -99.2392
rradius 52.4618
rwrist -28.9609
rhand -9.55728 14.3022
rfingers 7.12502
rthumb 16.4099 -15.0237
lclavicle -2.43511e-014 -4.05521e-014
lhumerus -43.8859 48.0857 51.7415
lradius 18.1309
lwrist -39.9433
lhand -14.8311 -5.65048
lfingers 7.12502
lthumb 11.3277 24.0236
rfemur 16.6433 6.617 24.8653
rtibia 15.2598
rfoot -42.3825 -35.4712
rtoes -8.52143
lfemur -24.3624 7.25397 -11.3697
ltibia 47.412
lfoot -19.8584 12.5226
ltoes -0.906511
220
root -0.461617 17.1569 16.6142 -898.646 73.7236 -170.84
lowerback 14.0343 -1.46953 6.03511
upperback 3.11456 -1.05783 -3.01345
thorax -4.73648 -0.532005 -6.45171
lowerneck 6.7024 11.312 6.05399
upperneck 12.6211 18.0193 -13.7961
head 4.49722 9.06946 -4.6334
rclavicle 3.50855e-014 -1.51076e-014
rhumerus -43.0033 12.9285 -98.9017
rradius 51.0059
rwrist -27.0147
rhand -9.43333 14.5499
rfingers 7.12502
rthumb 16.5293 -14.766
lclavicle 3.50855e-014 -1.51076e-014
lhumerus -44.5043 48.2965 50.6768
lradius 17.9501
lwrist -40.1894
lhand -15.0257 -5.72665
lfingers 7.12502
lthumb 11.14 23.9576
rfemur 17.0372 5.70514 24.5939
rtibia 15.0976
rfoot -42.5076 -35.479
rtoes -9.03124
lfemur -24.4956 7.8648 -11.3366
ltibia 47.7396
lfoot -20.2444 13.6997
ltoes -0.488962
221
root -0.430487 17.1422 16.5552 -899.076 72.6055 -171.253
lowerback 14.0059 -1.46232 5.75972
upperback 3.13147 -1.08607 -3.01072
thorax -4.70327 -0.539393 -6.28408
lowerneck 6.62875 11.1903 6.13626
upperneck 12.6849 17.8278 -13.5616
head 4.49394 8.98056 -4.58068
rclavicle -3.598e-014 1.19271e-014
rhumerus -42.6664 12.5861 -98.5167
rradius 49.4291
rwrist -24.71
rhand -9.39408 14.8985
rfingers 7.12502
rthumb 16.5671 -14.4143
lclavicle -3.598e-014 1.19271e-014
lhumerus -45.2121 48.6141 49.5175
lradius 17.7575
lwrist -40.673
lhand -15.1332 -5.83656
lfingers 7.12502
lthumb 11.0363 23.8533
rfemur 17.4555 4.80444 24.3098
rtibia 14.8849
rfoot -42.6709 -35.4384
rtoes -9.41276
lfemur -24.6626 8.50479 -11.3483
ltibia 48.0753
lfoot -20.6886 14.8032
ltoes 0.309497
222
root -0.398374 17.1263 16.4945 -899.494 71.4875 -171.648
lowerback 14.0019 -1.44273 5.45949
upperback 3.14849 -1.09942 -3.00453
thorax -4.68032 -0.539363 -6.10136
lowerneck 6.50738 11.0576 6.28164
upperneck 12.8001 17.6344 -13.348
head 4.52137 8.88956 -4.53877
rclavicle -6.9674e-014 1.51076e-014
rhumerus -42.2886 12.1955 -98.087
rradius 47.7903
rwrist -22.281
rhand -9.40712 15.2948
rfingers 7.12502
rthumb 16.5545 -14.019
lclavicle -6.9674e-014 1.51076e-014
lhumerus -46.0042 49.0593 48.2289
lradius 17.5201
lwrist -41.4635
lhand -15.1603 -5.96353
lfingers 7.12502
lthumb 11.0101 23.7277
rfemur 17.9027 3.96918 24.0384
rtibia 14.6814
rfoot -42.9191 -35.404
rtoes -9.79507
lfemur -24.8419 9.19619 -11.4207
ltibia 48.4088
lfoot -21.1168 15.742
ltoes 1.00764
223
root -0.365266 17.1122 16.4298 -899.873 70.3652 -172.009
lowerback 14.0054 -1.43123 5.15574
upperback 3.16437 -1.1234 -2.99665
thorax -4.66387 -0.544862 -5.91305
lowerneck 6.35379 10.9245 6.47033
upperneck 12.9465 17.4461 -13.1436
head 4.56874 8.80055 -4.50261
rclavicle 8.74653e-015 -1.90833e-014
rhumerus -41.8628 11.7041 -97.6081
rradius 46.1014
rwrist -19.6115
rhand -9.42238 15.6428
rfingers 7.12502
rthumb 16.5398 -13.6723
lclavicle 8.74653e-015 -1.90833e-014
lhumerus -46.792 49.4547 46.9787
lradius 17.2806
lwrist -42.3183
lhand -15.1652 -6.05262
lfingers 7.12502
lthumb 11.0054 23.6389
rfemur 18.336 3.26557 23.7965
rtibia 14.4932
rfoot -43.2138 -35.497
rtoes -10.2323
lfemur -25.0364 9.89985 -11.5555
ltibia 48.7383
lfoot -21.4671 16.5871
ltoes 1.40964
